<?xml version="1.0" standalone="no"?><!DOCTYPE svg PUBLIC "-//W3C//DTD SVG 1.1//EN" "http://www.w3.org/Graphics/SVG/1.1/DTD/svg11.dtd"><svg class="icon" width="200px" height="200.00px" viewBox="0 0 1024 1024" version="1.1" xmlns="http://www.w3.org/2000/svg"><path fill="#3866d2" d="M866.949 14.222c-51.959 0-99.556 25.98-125.535 69.253L325.86 100.807v30.303h-69.253C239.313 61.82 183.03 14.222 113.777 14.222c-38.95 0-73.576 12.97-99.555 38.95l38.95 38.988c17.37-13.009 38.988-21.618 60.606-21.618a86.85 86.85 0 0 1 86.585 86.471 86.85 86.85 0 0 1-86.585 86.623c-21.618 0-43.274-8.647-56.282-21.618l-43.274 43.198c25.98 21.732 60.606 39.064 99.556 39.064 69.253 0 129.858-47.635 142.829-112.564h73.576v30.34l389.575 12.971L537.98 421.129c-125.535 4.324-229.452 112.565-229.452 242.423a238.933 238.933 0 0 0 69.291 168.77l-86.585 177.494h519.434l-86.585-181.78c38.988-43.31 64.929-99.555 64.929-164.484 0-25.98-4.324-47.635-8.647-69.29l95.232-285.659c77.9-4.323 134.182-69.252 134.182-142.829 0-86.585-64.93-151.514-142.83-151.514zM546.626 845.293a184.737 184.737 0 0 1-186.14-186.14 184.737 184.737 0 0 1 186.14-186.103 184.737 184.737 0 0 1 186.14 186.103 184.737 184.737 0 0 1-186.14 186.14z m320.323-593.01a96.066 96.066 0 0 1-95.232-95.194c0-51.958 43.273-90.908 90.908-90.908 47.597 0 90.87 43.235 90.87 90.87s-38.95 95.232-86.546 95.232zM672.16 659.153a125.61 125.61 0 0 1-125.535 125.534c-69.252 0-121.21-56.244-121.21-125.534A125.61 125.61 0 0 1 550.95 533.618c69.253 0 121.211 56.282 121.211 125.535zM866.95 118.1c-21.656 0-38.95 17.332-38.95 38.95 0 21.656 17.294 38.95 38.95 38.95 21.618 0 38.95-17.294 38.95-38.95a38.815 38.815 0 0 0-38.95-38.95z"  /></svg>