<?xml version="1.0" standalone="no"?><!DOCTYPE svg PUBLIC "-//W3C//DTD SVG 1.1//EN" "http://www.w3.org/Graphics/SVG/1.1/DTD/svg11.dtd"><svg class="icon" width="200px" height="200.00px" viewBox="0 0 1024 1024" version="1.1" xmlns="http://www.w3.org/2000/svg"><path fill="#3866d2" d="M776.533333 560.761905c78.750476 0 142.628571 62.049524 142.628572 138.605714l-0.097524 4.876191c-1.755429 45.83619-27.794286 97.328762-70.582857 149.577142-15.969524 19.504762-33.133714 37.692952-50.273524 54.028191l-8.630857 8.045714c-1.389714 1.29219-2.730667 2.511238-4.047238 3.657143l-8.996572 7.850667-5.168762-4.437334a602.063238 602.063238 0 0 1-66.779428-69.144381c-42.76419-52.248381-68.827429-103.740952-70.582857-149.552762l-0.073143-2.438095-0.024381-2.438095C633.904762 622.811429 697.782857 560.761905 776.533333 560.761905zM316.952381 170.666667v73.118476L268.190476 243.809524v609.523809h362.910476c8.508952 12.458667 17.92 24.990476 28.208762 37.546667 9.947429 12.166095 20.48 24.064 31.500191 35.620571L268.190476 926.47619a73.142857 73.142857 0 0 1-73.142857-73.142857V243.809524a73.142857 73.142857 0 0 1 73.142857-73.142857h48.761905z m459.580952 463.238095c-37.400381 0-67.193905 27.623619-69.363809 61.537524l-0.121905 3.925333 0.048762 2.072381c0.975238 25.770667 18.919619 63.097905 54.076952 106.057143 4.924952 5.997714 10.044952 11.946667 15.36 17.846857l7.801905-8.899048 7.558095-8.97219c33.304381-40.667429 51.151238-76.312381 53.784381-101.863619l0.292572-4.144762 0.048762-2.096762c0-35.669333-30.646857-65.462857-69.485715-65.462857z m0 28.745143a40.740571 40.740571 0 1 1 0 81.481143 40.740571 40.740571 0 0 1 0-81.481143zM560.761905 560.761905v73.142857h-219.428572v-73.142857h219.428572z m195.047619-390.095238a73.142857 73.142857 0 0 1 73.142857 73.142857v265.216a205.141333 205.141333 0 0 0-73.142857-5.753905V243.809524h-48.761905V170.666667h48.761905z m-73.142857 243.809523v73.142858H341.333333v-73.142858h341.333334zM585.142857 97.52381a73.142857 73.142857 0 0 1 73.142857 73.142857v48.761904a73.142857 73.142857 0 0 1-73.142857 73.142858h-146.285714a73.142857 73.142857 0 0 1-73.142857-73.142858V170.666667a73.142857 73.142857 0 0 1 73.142857-73.142857h146.285714z m0 73.142857h-146.285714v48.761904h146.285714V170.666667z" /></svg>